<svg width="229" height="229" viewBox="0 0 229 229" fill="none" xmlns="http://www.w3.org/2000/svg">
<path d="M114.5 229C51.3654 229 0 177.635 0 114.5C0 51.3654 51.3654 0 114.5 0C177.635 0 229 51.3654 229 114.5C229 177.635 177.635 229 114.5 229ZM114.5 6.93939C55.189 6.93939 6.93939 55.189 6.93939 114.5C6.93939 173.811 55.189 222.061 114.5 222.061C173.811 222.061 222.061 173.811 222.061 114.5C222.061 55.189 173.811 6.93939 114.5 6.93939Z" fill="#CACACA"/>
<path d="M114.5 6.93939C55.189 6.93939 6.93939 55.189 6.93939 114.5C6.93939 173.811 55.189 222.061 114.5 222.061C173.811 222.061 222.061 173.811 222.061 114.5C222.061 55.189 173.811 6.93939 114.5 6.93939Z" fill="#CACACA"/>
<path d="M114.5 228.999C90.6628 228.999 67.7558 221.657 48.2353 207.765C47.1944 207.022 46.6393 205.752 46.8058 204.482C46.9724 203.212 47.8328 202.13 49.0403 201.686C77.811 191.034 82.4535 182.387 82.4535 165.816C82.4535 161.437 81.4681 160.001 79.6916 157.392C77.3391 153.964 74.1193 149.266 71.857 136.997C71.5239 135.234 71.2394 135.095 69.6642 134.332C65.4589 132.306 61.5937 129.391 60.5805 116.095C60.5805 109.656 62.8011 106.096 64.6401 104.243C64.2376 101.953 63.5783 98.0044 62.9607 93.7019C59.8172 74.4313 59.6784 50.8304 86.7837 39.8592C110.405 30.2828 129.26 35.5151 135.179 41.7536C139.37 41.8855 150.182 42.9819 157.704 51.7325C169.279 65.1949 165.594 95.8879 164.331 104.208C166.177 106.019 168.419 109.531 168.419 115.832C167.406 129.391 163.54 132.313 159.328 134.332C157.746 135.095 157.461 135.227 157.135 136.997C154.873 149.266 151.66 153.964 149.308 157.392C147.524 159.994 146.546 161.437 146.546 165.816C146.546 182.387 151.188 191.034 179.959 201.686C181.166 202.13 182.027 203.206 182.193 204.482C182.36 205.759 181.805 207.022 180.764 207.765C161.243 221.657 138.336 228.999 114.5 228.999ZM57.7145 205.759C74.7993 216.446 94.299 222.06 114.5 222.06C134.7 222.06 154.2 216.446 171.285 205.759C147.177 195.864 139.606 185.885 139.606 165.823C139.606 159.293 141.535 156.469 143.583 153.478C145.692 150.397 148.315 146.566 150.321 135.741C151.285 130.51 154.316 129.052 156.322 128.087L156.323 128.087C158.481 127.053 160.702 125.984 161.486 115.575C161.479 110.273 159.099 108.83 159.002 108.774C157.725 108.039 156.899 106.491 157.17 105.048C158.891 95.8254 161.722 67.0616 152.444 56.257C146.109 48.8873 136.123 48.6861 134.221 48.7624C133.902 48.7347 133.59 48.7277 133.291 48.6514C132.389 48.4224 130.863 47.6382 130.398 46.8333C128.51 43.5995 112.071 37.0973 89.3859 46.2781C66.9648 55.3549 66.9162 74.8129 69.8238 92.6472C70.7814 99.2882 71.8293 105.027 71.8362 105.055C72.1207 106.616 71.3088 108.171 69.8724 108.83C69.8932 108.83 67.5199 110.28 67.5199 115.825C68.2971 125.963 70.5247 127.039 72.6759 128.073C72.6778 128.074 72.6797 128.075 72.6817 128.076C74.6872 129.04 77.7217 130.5 78.6854 135.727C80.6839 146.552 83.307 150.383 85.4166 153.464C87.4707 156.455 89.3998 159.279 89.3998 165.809C89.3998 185.892 81.8289 195.871 57.7145 205.759Z" fill="#828282"/>
<path d="M57.7145 205.759C74.7993 216.446 94.299 222.06 114.5 222.06C134.7 222.06 154.2 216.446 171.285 205.759C147.177 195.864 139.606 185.885 139.606 165.823C139.606 159.293 141.535 156.469 143.583 153.478C145.692 150.397 148.315 146.566 150.321 135.741C151.285 130.51 154.316 129.052 156.322 128.087L156.323 128.087C158.481 127.053 160.702 125.984 161.486 115.575C161.479 110.273 159.099 108.83 159.002 108.774C157.725 108.039 156.899 106.491 157.17 105.048C158.891 95.8254 161.722 67.0616 152.444 56.257C146.109 48.8873 136.123 48.6861 134.221 48.7624C133.902 48.7347 133.59 48.7277 133.291 48.6514C132.389 48.4224 130.863 47.6382 130.398 46.8333C128.51 43.5995 112.071 37.0973 89.3859 46.2781C66.9648 55.3549 66.9162 74.8129 69.8238 92.6472C70.7814 99.2882 71.8293 105.027 71.8362 105.055C72.1207 106.616 71.3088 108.171 69.8724 108.83C69.8932 108.83 67.5199 110.28 67.5199 115.825C68.2971 125.963 70.5247 127.039 72.6759 128.073L72.6817 128.076C74.6872 129.04 77.7217 130.5 78.6854 135.727C80.6839 146.552 83.307 150.383 85.4166 153.464C87.4707 156.455 89.3998 159.279 89.3998 165.809C89.3998 185.892 81.8289 195.871 57.7145 205.759Z" fill="#828282"/>
</svg>
